<?xml version="1.0" encoding="utf-8"?>
<!-- Generator: Adobe Illustrator 21.0.0, SVG Export Plug-In . SVG Version: 6.00 Build 0)  -->
<svg version="1.1" id="图层_1" xmlns="http://www.w3.org/2000/svg" xmlns:xlink="http://www.w3.org/1999/xlink" x="0px" y="0px"
	 viewBox="0 0 56 54" style="enable-background:new 0 0 56 54;" xml:space="preserve">
<style type="text/css">
	.st0{fill:#7fb80e;}
</style>
<title>Star</title>
<desc>Created with Sketch.</desc>
<path id="Star" class="st0" d="M28,46.5l-11.6,6.1c-2.4,1.3-5.5,0.3-6.8-2.1c-0.5-1-0.7-2.1-0.5-3.2l2.2-12.9l0,0L2,25.3
	c-2-1.9-2-5.1-0.1-7.1c0.8-0.8,1.8-1.3,2.9-1.5l13-1.9l0,0l5.8-11.8c1.2-2.5,4.2-3.5,6.7-2.3c1,0.5,1.8,1.3,2.3,2.3l5.8,11.8l0,0
	l13,1.9c2.7,0.4,4.6,2.9,4.2,5.7c-0.2,1.1-0.7,2.1-1.5,2.9l-9.4,9.2l0,0l2.2,12.9c0.5,2.7-1.4,5.3-4.1,5.8c-1.1,0.2-2.2,0-3.2-0.5
	L28,46.5L28,46.5z"/>
</svg>
