<?xml version="1.0" encoding="utf-8"?>
<!-- Generator: Adobe Illustrator 21.0.0, SVG Export Plug-In . SVG Version: 6.00 Build 0)  -->
<svg version="1.1" id="图层_1" xmlns="http://www.w3.org/2000/svg" xmlns:xlink="http://www.w3.org/1999/xlink" x="0px" y="0px"
	 viewBox="0 0 40 40" style="enable-background:new 0 0 40 40;" xml:space="preserve">
<style type="text/css">
	.st0{fill:#333333;}
	.st1{fill:#FFFFFF;}
</style>
<title>z</title>
<desc>Created with Sketch.</desc>
<rect id="Rectangle" class="st0" width="40" height="40"/>
<g>
	<path class="st1" d="M12.6,19.4c2.4,0,3.7-1.1,3.7-3.3h0v-5h-2.4v4.4c0,0.2,0,0.4,0,0.6c0,0.2,0,0.4-0.1,0.6
		c-0.1,0.2-0.2,0.3-0.3,0.5s-0.4,0.2-0.7,0.2c-0.3,0-0.6,0-0.7-0.2s-0.3-0.3-0.4-0.5c-0.1-0.2-0.1-0.4-0.1-0.6c0-0.2,0-0.4,0-0.6
		v-4.4H9v5C9,18.3,10.2,19.4,12.6,19.4z"/>
	<path class="st1" d="M18.7,16c0-0.2,0-0.5,0.1-0.6c0.1-0.2,0.1-0.3,0.2-0.4c0.2-0.1,0.4-0.2,0.6-0.2c0.3,0,0.5,0.1,0.7,0.3
		c0.1,0.2,0.1,0.5,0.1,0.9v3.1h2.2v-4c0-0.7-0.2-1.2-0.6-1.5s-0.8-0.5-1.4-0.5c-0.9,0-1.5,0.3-1.9,0.9h0v-0.8h-2.2v5.9h2.2V16z"/>
	<rect x="22.8" y="13.3" class="st1" width="2.2" height="5.9"/>
	<rect x="22.8" y="11.1" class="st1" width="2.2" height="1.6"/>
	<path class="st1" d="M28.4,19.3c1.1,0,1.9-0.3,2.4-1c0.5-0.6,0.8-1.3,0.8-2.2c0-0.8-0.2-1.6-0.8-2.1c-0.5-0.6-1.3-0.9-2.4-0.9
		c-1.1,0-1.9,0.3-2.4,0.9c-0.5,0.6-0.8,1.3-0.8,2.1c0,0.8,0.2,1.6,0.8,2.2C26.5,19,27.3,19.3,28.4,19.3z M27.5,15.2
		c0.1-0.2,0.2-0.2,0.3-0.3c0.1-0.1,0.3-0.1,0.5-0.1c0.2,0,0.4,0,0.5,0.1c0.1,0.1,0.2,0.2,0.3,0.3c0.1,0.2,0.1,0.3,0.2,0.5
		c0,0.2,0,0.4,0,0.5c0,0.3-0.1,0.7-0.2,1c-0.1,0.2-0.2,0.2-0.3,0.4c-0.1,0.1-0.3,0.1-0.5,0.1c-0.2,0-0.4,0-0.5-0.1
		c-0.2-0.1-0.2-0.2-0.3-0.4c0-0.1-0.1-0.3-0.1-0.5c0-0.2,0-0.3,0-0.5C27.4,15.9,27.4,15.5,27.5,15.2z"/>
	<path class="st1" d="M37.3,13.6c-0.4-0.3-0.9-0.5-1.4-0.5c-0.9,0-1.5,0.3-1.9,0.9h0v-0.8h-2.2v5.9H34V16c0-0.2,0-0.5,0.1-0.6
		c0.1-0.2,0.2-0.3,0.2-0.4c0.2-0.1,0.4-0.2,0.6-0.2c0.3,0,0.5,0.1,0.6,0.3c0.1,0.2,0.1,0.5,0.1,0.9v3.1h2.2v-4
		C37.9,14.5,37.7,14,37.3,13.6z"/>
	<path class="st1" d="M6,18.9H2V27h3.5c2.7,0,4-1.4,4-4c0-1-0.2-2-0.8-2.8C8.2,19.3,7.3,18.9,6,18.9z M7.1,23.5
		C7,23.8,7,24,6.8,24.2s-0.3,0.4-0.5,0.5c-0.2,0.1-0.5,0.2-0.9,0.2H4.5v-4h0.8C5.7,21,6,21,6.3,21.2c0.2,0.2,0.4,0.3,0.6,0.5
		c0.1,0.2,0.2,0.4,0.2,0.6c0,0.2,0,0.4,0,0.6C7.1,23.1,7.1,23.3,7.1,23.5z"/>
	<path class="st1" d="M12.5,21.2c-0.2,0.2-0.5,0.5-0.7,0.8h0v-1H9.8V27h2.1v-2.3c0-1.2,0.5-1.8,1.3-1.8c0.2,0,0.4,0,0.5,0
		c0.1,0,0.2,0,0.3,0.1v-2C13.9,21,13.7,21,13.5,21C13.1,21,12.8,21,12.5,21.2z"/>
	<path class="st1" d="M18.2,21.1v3.1c0,0.2,0,0.4-0.1,0.6c0,0.1-0.1,0.3-0.2,0.3c-0.2,0.2-0.4,0.2-0.6,0.2c-0.3,0-0.5-0.1-0.6-0.3
		c-0.1-0.2-0.1-0.5-0.1-0.8v-3.1h-2.2v4c0,0.7,0.2,1.2,0.6,1.5c0.4,0.3,0.9,0.5,1.4,0.5c0.9,0,1.5-0.3,1.9-0.9h0V27h2.1v-5.9H18.2z"
		/>
	<path class="st1" d="M24.8,21.8L24.8,21.8c-0.2-0.3-0.4-0.5-0.6-0.7C23.9,21,23.6,21,23.2,21c-0.8,0-1.5,0.3-1.9,0.8
		c-0.4,0.5-0.7,1.2-0.7,2s0.2,1.5,0.6,2c0.4,0.5,1,0.8,1.9,0.8c0.7,0,1.2-0.3,1.6-0.8h0v0.5c0,0.2,0,0.6-0.1,0.9
		c-0.1,0.1-0.2,0.2-0.3,0.3c-0.1,0.1-0.3,0.2-0.5,0.2c-0.1,0-0.3,0-0.4-0.2c-0.1-0.1-0.2-0.2-0.3-0.3c-0.1-0.1-0.1-0.2-0.1-0.2H21
		c0.1,0.8,0.5,1.3,1.1,1.6c0.6,0.3,1.2,0.4,1.9,0.4c0.7,0,1.2-0.1,1.6-0.3c0.4-0.2,0.7-0.4,0.9-0.7c0.2-0.3,0.4-0.6,0.4-0.9
		c0-0.3,0.1-0.6,0.1-0.9v-5.1h-2.2V21.8z M24.7,24.7c-0.1,0.1-0.2,0.3-0.3,0.3c-0.1,0.1-0.3,0.2-0.5,0.2c-0.4,0-0.7-0.2-0.8-0.5
		c-0.1-0.1-0.1-0.3-0.2-0.5s0-0.3,0-0.5c0-0.3,0.1-0.6,0.2-0.8c0.2-0.2,0.4-0.3,0.8-0.3c0.3,0,0.6,0.1,0.8,0.3
		c0.2,0.2,0.2,0.5,0.2,0.8C24.8,24.1,24.8,24.4,24.7,24.7z"/>
	<polygon class="st1" points="4,17.1 6,17.1 6,15 8.1,15 8.1,13 6,13 6,11 4,11 4,13 2,13 2,15 4,15 	"/>
	<polygon class="st1" points="31.1,24.6 31.1,24.2 31.5,24.2 31.5,23.8 31.1,23.8 31.1,23.4 30.7,23.4 30.7,23.8 30.3,23.8 
		30.3,24.2 30.7,24.2 30.7,24.6 	"/>
	<path class="st1" d="M35,24.3l0.2-0.1v-0.4L35,23.9v-2.5h0.3V21H33v0.4h0.3v3.1L33,24.6l0.3,0.6l1.2-0.6v1.1H35V25v0V24.3z
		 M34.5,24.1l-0.6,0.2v-0.8h0.5v-0.4h-0.5v-0.6h0.5v-0.4h-0.5v-0.7h0.6V24.1z"/>
	<polygon class="st1" points="28.2,25.7 30.1,24.6 30.1,24.4 27.8,25.1 	"/>
	<polygon class="st1" points="29.8,22.6 29.2,22.6 28.9,23 28.5,23 29.2,22 28.5,22 28,23.1 27.9,23.1 28.1,23.7 28.7,23.4 
		28.1,24.2 27.8,24.2 28.1,24.8 30.1,24 30.1,23.8 28.8,24 	"/>
	<polygon class="st1" points="31.3,20.9 30.8,20.9 30.8,21.3 29.4,21.3 29.4,20.9 28.8,20.9 28.8,21.3 27.7,21.3 27.7,21.7 
		28.8,21.7 28.8,22 29.4,22 29.4,21.7 30.8,21.7 30.8,22 31.3,22 31.3,21.7 32.4,21.7 32.4,21.3 31.3,21.3 	"/>
	<path class="st1" d="M36.8,23.5l0.8,0v-0.4h-0.9c0-0.3,0-0.7,0-0.9h0.9v-0.4H37l0.5-0.8L36.9,21l-0.2,0.9h-0.5l0.3-0.3L35.8,21
		L35.6,21l0.4,0.8h-0.7v0.4h0.9c0,0.2,0,0.5,0,0.9h-0.9v0.4h0.8v0c-0.1,0.7-0.5,1-1.1,1.5l0.1,0.6c0.7-0.5,1.1-0.9,1.3-1.6
		c0.1,0.7,0.6,1.4,1.2,1.6l0.1-0.6C37,24.7,36.8,24,36.8,23.5z"/>
	<path class="st1" d="M30.7,22.5L31,22h-0.7l-0.7,1.7h0.2l0.6-0.8h1.2v1.9c0,0.4-0.2,0.5-0.7,0.5l0.2,0.3c0.6,0,1.1-0.1,1.1-0.6
		v-2.5L30.7,22.5L30.7,22.5z"/>
</g>
</svg>
